/* XPM */
static const char *Scene_xpm[] = {
/* width height num_colors chars_per_pixel */
"32 32 45 1", 
/* colors */
"  c #FDFDFD",
". c #404040",
"X c #EAEAEA",
"o c #D7D7D7",
"O c #6D6D6D",
"+ c #383838",
"@ c #212121",
"# c #131813",
"$ c #303030",
"% c #DADADA",
"& c #C7C7C7",
"* c #041404",
"= c #929292",
"- c #191919",
"; c #7F7F7F",
": c #282828",
"> c #005300",
", c #F4F4F4",
"< c #BFBFBF",
"1 c #FFFFFF",
"2 c #202020",
"3 c #0D0D0D",
"4 c #B7B7B7",
"5 c #FBFBFB",
"6 c #919191",
"7 c #B3B3B3",
"8 c #D5D5D5",
"9 c #F7F7F7",
"0 c #7E7E7E",
"q c #050505",
"w c #141414",
"e c #010101",
"r c #EFEFEF",
"t c #323232",
"y c #FEFEFE",
"u c #0C0C0C",
"i c #B6B6B6",
"p c #080808",
"a c #909090",
"s c #5B5B5B",
"d c #E3E3E3",
"f c #F2F2F2",
"g c #131313",
"h c #DFDFDF",
"j c #000000",
/* pixels */
"11111111111111111111111111111111",
"11111111111111111111111111111111",
"11111111111111111111111111111111",
"11111111111111111111111111111111",
"111111111119hooooooh911111111111",
"111111119ho<.::::::.<oh911111111",
"1111119h<.:@3uw--wu3@:.<h9111111",
"111119&.2pqgts;==;stgqp2.&911111",
"11119&+pep:O7%XrrX%7O:pep+&91111",
"1119&+pjpta%, 1111 ,%atpjp+&9111",
"119&+pjq:ad5111111115da:qjp+&911",
"11h.pjegO%511y5995y115%Ogejp.h11",
"19<2jjqt7,11 f8448f 11,7tqjj2<91",
"1h.pjjus% 1yfis$$sify1 %sujjp.h1",
"9<2jjjw0X1158s#**#s8511X0wjjj2<9",
"h.pjjj-6r1194$*>>*$4911r6-jjjp.h",
"o:jjjj-6r1194$*>>*$4911r6-jjjj:o",
"o:jjjjw0X1158s#**#s8511X0wjjjj:o",
"h.pjjjus% 1yfis$$sify1 %sujjjp.h",
"9<2jjjqt7,11 f8448f 11,7tqjjj2<9",
"1h.pjjegO%511y5995y115%Ogejjp.h1",
"19&+pjjq:ad5111111115da:qjjp+&91",
"119&+pjjpta%, 1111 ,%atpjjp+&911",
"1119&.2pep:O7%XrrX%7O:pep2.&9111",
"11119h<.2pqgts;==;stgqp2.<h91111",
"1111119h<.:@3uw--wu3@:.<h9111111",
"111111119ho<.::::::.<oh911111111",
"111111111119hooooooh911111111111",
"11111111111111111111111111111111",
"11111111111111111111111111111111",
"11111111111111111111111111111111",
"11111111111111111111111111111111"
};
